{
    "asset" : {
        "generator" : "Khronos glTF Blender I/O v3.2.43",
        "version" : "2.0"
    },
    "scene" : 0,
    "scenes" : [
        {
            "name" : "Scene",
            "nodes" : [
                0,
                1,
                2,
                3,
                4,
                5
            ]
        }
    ],
    "nodes" : [
        {
            "mesh" : 0,
            "name" : "Base"
        },
        {
            "mesh" : 1,
            "name" : "WindSpeed",
            "scale" : [
                0.808097779750824,
                0.25288212299346924,
                0.808097779750824
            ],
            "translation" : [
                3.7234230041503906,
                3.4417343139648438,
                -2.1556661128997803
            ]
        },
        {
            "mesh" : 2,
            "name" : "WindDirection",
            "scale" : [
                0.808097779750824,
                0.25288212299346924,
                0.808097779750824
            ],
            "translation" : [
                -3.7234230041503906,
                3.4417343139648438,
                -2.1556661128997803
            ]
        },
        {
            "mesh" : 3,
            "name" : "RainCollection",
            "translation" : [
                0,
                1.6853388547897339,
                5
            ]
        },
        {
            "mesh" : 4,
            "name" : "Button",
            "scale" : [
                1,
                0.1102912425994873,
                1
            ],
            "translation" : [
                0,
                1.1794469356536865,
                2.5857105255126953
            ]
        },
        {
            "mesh" : 5,
            "name" : "Plane",
            "scale" : [
                5,
                5,
                5
            ],
            "translation" : [
                0,
                -11,
                0
            ]
        }
    ],
    "materials" : [
        {
            "doubleSided" : true,
            "name" : "Material.002",
            "pbrMetallicRoughness" : {
                "baseColorFactor" : [
                    0.03881651908159256,
                    0.03881651908159256,
                    0.03881651908159256,
                    1
                ],
                "metallicFactor" : 0,
                "roughnessFactor" : 0.5
            }
        },
        {
            "doubleSided" : true,
            "name" : "Material.003",
            "pbrMetallicRoughness" : {
                "baseColorFactor" : [
                    0.20737262070178986,
                    0.20737262070178986,
                    0.20737262070178986,
                    1
                ],
                "metallicFactor" : 0,
                "roughnessFactor" : 0.5
            }
        },
        {
            "doubleSided" : true,
            "name" : "Material.001",
            "pbrMetallicRoughness" : {
                "baseColorFactor" : [
                    0.12057459354400635,
                    0.8000000715255737,
                    0.12867453694343567,
                    1
                ],
                "metallicFactor" : 0,
                "roughnessFactor" : 0.5
            }
        }
    ],
    "meshes" : [
        {
            "name" : "Cylinder.003",
            "primitives" : [
                {
                    "attributes" : {
                        "POSITION" : 0,
                        "NORMAL" : 1,
                        "TEXCOORD_0" : 2
                    },
                    "indices" : 3,
                    "material" : 0
                }
            ]
        },
        {
            "name" : "Cylinder.006",
            "primitives" : [
                {
                    "attributes" : {
                        "POSITION" : 4,
                        "NORMAL" : 5,
                        "TEXCOORD_0" : 6
                    },
                    "indices" : 7,
                    "material" : 1
                }
            ]
        },
        {
            "name" : "Cylinder.007",
            "primitives" : [
                {
                    "attributes" : {
                        "POSITION" : 8,
                        "NORMAL" : 9,
                        "TEXCOORD_0" : 10
                    },
                    "indices" : 11,
                    "material" : 1
                }
            ]
        },
        {
            "name" : "Cylinder.008",
            "primitives" : [
                {
                    "attributes" : {
                        "POSITION" : 12,
                        "NORMAL" : 13,
                        "TEXCOORD_0" : 14
                    },
                    "indices" : 15,
                    "material" : 1
                }
            ]
        },
        {
            "name" : "Cylinder.010",
            "primitives" : [
                {
                    "attributes" : {
                        "POSITION" : 16,
                        "NORMAL" : 17,
                        "TEXCOORD_0" : 18
                    },
                    "indices" : 19,
                    "material" : 0
                }
            ]
        },
        {
            "name" : "Plane",
            "primitives" : [
                {
                    "attributes" : {
                        "POSITION" : 20,
                        "NORMAL" : 21,
                        "TEXCOORD_0" : 22
                    },
                    "indices" : 23,
                    "material" : 2
                }
            ]
        }
    ],
    "accessors" : [
        {
            "bufferView" : 0,
            "componentType" : 5126,
            "count" : 424,
            "max" : [
                4.246594429016113,
                3.188852310180664,
                6
            ],
            "min" : [
                -4.246594429016113,
                -11,
                -2.6735870838165283
            ],
            "type" : "VEC3"
        },
        {
            "bufferView" : 1,
            "componentType" : 5126,
            "count" : 424,
            "type" : "VEC3"
        },
        {
            "bufferView" : 2,
            "componentType" : 5126,
            "count" : 424,
            "type" : "VEC2"
        },
        {
            "bufferView" : 3,
            "componentType" : 5123,
            "count" : 744,
            "type" : "SCALAR"
        },
        {
            "bufferView" : 4,
            "componentType" : 5126,
            "count" : 960,
            "max" : [
                3.0570170879364014,
                1.831939935684204,
                2.0181007385253906
            ],
            "min" : [
                -3.019540786743164,
                -1.9289350509643555,
                -3.4734842777252197
            ],
            "type" : "VEC3"
        },
        {
            "bufferView" : 5,
            "componentType" : 5126,
            "count" : 960,
            "type" : "VEC3"
        },
        {
            "bufferView" : 6,
            "componentType" : 5126,
            "count" : 960,
            "type" : "VEC2"
        },
        {
            "bufferView" : 7,
            "componentType" : 5123,
            "count" : 1092,
            "type" : "SCALAR"
        },
        {
            "bufferView" : 8,
            "componentType" : 5126,
            "count" : 174,
            "max" : [
                1.6724567413330078,
                1.2860074043273926,
                1.234655499458313
            ],
            "min" : [
                -1.2362704277038574,
                -1.4328861236572266,
                -1.6772595643997192
            ],
            "type" : "VEC3"
        },
        {
            "bufferView" : 9,
            "componentType" : 5126,
            "count" : 174,
            "type" : "VEC3"
        },
        {
            "bufferView" : 10,
            "componentType" : 5126,
            "count" : 174,
            "type" : "VEC2"
        },
        {
            "bufferView" : 11,
            "componentType" : 5123,
            "count" : 276,
            "type" : "SCALAR"
        },
        {
            "bufferView" : 12,
            "componentType" : 5126,
            "count" : 378,
            "max" : [
                1,
                1.6858936548233032,
                1
            ],
            "min" : [
                -1,
                0.46977221965789795,
                -1
            ],
            "type" : "VEC3"
        },
        {
            "bufferView" : 13,
            "componentType" : 5126,
            "count" : 378,
            "type" : "VEC3"
        },
        {
            "bufferView" : 14,
            "componentType" : 5126,
            "count" : 378,
            "type" : "VEC2"
        },
        {
            "bufferView" : 15,
            "componentType" : 5123,
            "count" : 576,
            "type" : "SCALAR"
        },
        {
            "bufferView" : 16,
            "componentType" : 5126,
            "count" : 96,
            "max" : [
                0.20000000298023224,
                1,
                0.20000000298023224
            ],
            "min" : [
                -0.20000000298023224,
                -1,
                -0.20000000298023224
            ],
            "type" : "VEC3"
        },
        {
            "bufferView" : 17,
            "componentType" : 5126,
            "count" : 96,
            "type" : "VEC3"
        },
        {
            "bufferView" : 18,
            "componentType" : 5126,
            "count" : 96,
            "type" : "VEC2"
        },
        {
            "bufferView" : 19,
            "componentType" : 5123,
            "count" : 180,
            "type" : "SCALAR"
        },
        {
            "bufferView" : 20,
            "componentType" : 5126,
            "count" : 4,
            "max" : [
                1,
                0,
                1
            ],
            "min" : [
                -1,
                0,
                -1
            ],
            "type" : "VEC3"
        },
        {
            "bufferView" : 21,
            "componentType" : 5126,
            "count" : 4,
            "type" : "VEC3"
        },
        {
            "bufferView" : 22,
            "componentType" : 5126,
            "count" : 4,
            "type" : "VEC2"
        },
        {
            "bufferView" : 23,
            "componentType" : 5123,
            "count" : 6,
            "type" : "SCALAR"
        }
    ],
    "bufferViews" : [
        {
            "buffer" : 0,
            "byteLength" : 5088,
            "byteOffset" : 0
        },
        {
            "buffer" : 0,
            "byteLength" : 5088,
            "byteOffset" : 5088
        },
        {
            "buffer" : 0,
            "byteLength" : 3392,
            "byteOffset" : 10176
        },
        {
            "buffer" : 0,
            "byteLength" : 1488,
            "byteOffset" : 13568
        },
        {
            "buffer" : 0,
            "byteLength" : 11520,
            "byteOffset" : 15056
        },
        {
            "buffer" : 0,
            "byteLength" : 11520,
            "byteOffset" : 26576
        },
        {
            "buffer" : 0,
            "byteLength" : 7680,
            "byteOffset" : 38096
        },
        {
            "buffer" : 0,
            "byteLength" : 2184,
            "byteOffset" : 45776
        },
        {
            "buffer" : 0,
            "byteLength" : 2088,
            "byteOffset" : 47960
        },
        {
            "buffer" : 0,
            "byteLength" : 2088,
            "byteOffset" : 50048
        },
        {
            "buffer" : 0,
            "byteLength" : 1392,
            "byteOffset" : 52136
        },
        {
            "buffer" : 0,
            "byteLength" : 552,
            "byteOffset" : 53528
        },
        {
            "buffer" : 0,
            "byteLength" : 4536,
            "byteOffset" : 54080
        },
        {
            "buffer" : 0,
            "byteLength" : 4536,
            "byteOffset" : 58616
        },
        {
            "buffer" : 0,
            "byteLength" : 3024,
            "byteOffset" : 63152
        },
        {
            "buffer" : 0,
            "byteLength" : 1152,
            "byteOffset" : 66176
        },
        {
            "buffer" : 0,
            "byteLength" : 1152,
            "byteOffset" : 67328
        },
        {
            "buffer" : 0,
            "byteLength" : 1152,
            "byteOffset" : 68480
        },
        {
            "buffer" : 0,
            "byteLength" : 768,
            "byteOffset" : 69632
        },
        {
            "buffer" : 0,
            "byteLength" : 360,
            "byteOffset" : 70400
        },
        {
            "buffer" : 0,
            "byteLength" : 48,
            "byteOffset" : 70760
        },
        {
            "buffer" : 0,
            "byteLength" : 48,
            "byteOffset" : 70808
        },
        {
            "buffer" : 0,
            "byteLength" : 32,
            "byteOffset" : 70856
        },
        {
            "buffer" : 0,
            "byteLength" : 12,
            "byteOffset" : 70888
        }
    ],
    "buffers" : [
        {
            "byteLength" : 70900,
            "uri" : "data:application/octet-stream;base64,"
        }
    ]
}
